# xmcd
#
# Track frame offsets: 
#        150
#        14587
#        29615
#        43137
#        58282
#        75147
#        88952
#        106902
#        120507
#        134917
#
# Disc length: 2151 seconds
#
# Revision: 2
# Processed by: cddbd v1.5.1PL0 Copyright (c) Steve Scherf et al.
# Submitted via: ExactAudioCopy v0.95a5
#
DISCID=8a08650a
DTITLE=Johnny Madsen - Regnmanden
DYEAR=2003
DGENRE=Blues
TTITLE0=Sorte Måne
TTITLE1=Jernmanden
TTITLE2=Waterloo
TTITLE3=Bern Kassel Blues
TTITLE4=Basketballspilleren
TTITLE5=Darwin er død i Danmark
TTITLE6=Spotligth
TTITLE7=Dobbelt bogey Blues
TTITLE8=London kalder
TTITLE9=Taxa
EXTD=Cd inkl. dvd med Livekoncert fra Skive Teater, Knud Møller(guitar
EXTD=) and Henrik From(drums]\n
EXTT0=Johnny Madsen - vokal,guitar\nKnud Møller - akk.slide, div.guita
EXTT0=rer, programmering\nNiels Nello Mogensen - Bas\nHenrik From - tr
EXTT0=ommer, perc\nRikke Mølgaard - Kor\nN.O.Thorning - klaver\n
EXTT1=Johnny Madsen - vokal, guitar\nKnud Møller - akk.slide, div. gui
EXTT1=tarer, Harmonium, programmering\nNiels Nello Mogensen - Bas\nHen
EXTT1=rik From - trommer, perc\n
EXTT2=Johnny Madsen - vokal, guitar\nKnud Møller - akk.slide, div. man
EXTT2=dolin, programmering\nMorten Schmidt Maltesen - programmering, B
EXTT2=as\nHenrik From - perc\nRikke Mølgaard - kor\n
EXTT3=Johnny Madsen - vokal, guitar\nKnud Møller - div.guitarer, harmo
EXTT3=nium, slide guitar, programmering\nNiels Nello Mogensen - Bas\nH
EXTT3=enrik From - trommer, perc\n
EXTT4=Johnny Madsen - vokal, guitar\nKnud Møller - akk.guitar, mandoli
EXTT4=n, anti harmonium, programmering\nNiels Nello Mogensen - Bas\nHe
EXTT4=nrik From - perc\n
EXTT5=Johnny Madsen - vokal, guitar\nKnud Møller - slide guitar, el gu
EXTT5=itar, programmering\nNiels Nello Mogensen - Bas\nHenrik From - t
EXTT5=rommer, perc\nRikke Mølgaard - kor\n
EXTT6=Johnny Madsen - vokal, guitar\nKnud Møller - akk.slide, guitar, 
EXTT6=programmering\nNiels Nello Mogensen - Bas\nHenrik From - perc\nM
EXTT6=artin Jønsson - hammond\n
EXTT7=Johnny Madsen - vokal, guitar\nKnud Møller - el. guitar, program
EXTT7=mering\nNiels Nello Mogensen - Bas\nHenrik From - Trommer, perc\n
EXTT7=Martin Jønsson - klaver\nRikke Mølgaard - Kor\n
EXTT8=Johnny Madsen - vokal, guitar\nKnud Møller - akk. guitar, el gui
EXTT8=tar, mandolin, programmering\nNiels Nello Mogensen - Bas\nHenrik
EXTT8=From - Trommer, perc\n
EXTT9=Johnny Madsen - sang\nRasmus Madsen - div. guitar\nNiels Nello M
EXTT9=ogensen - Bas\nHenrik From - perc\nMorten Schmidt Maltesen - pro
EXTT9=grammering\n
PLAYORDER=
